<?xml version="1.0" standalone="no"?>
<!DOCTYPE svg PUBLIC "-//W3C//DTD SVG 20010904//EN"
 "http://www.w3.org/TR/2001/REC-SVG-20010904/DTD/svg10.dtd">
<svg version="1.0" xmlns="http://www.w3.org/2000/svg"
 width="743.000000pt" height="743.000000pt" viewBox="0 0 743.000000 743.000000"
 preserveAspectRatio="xMidYMid meet">

<g transform="translate(0.000000,743.000000) scale(0.100000,-0.100000)"
fill="#000000" stroke="none">
<path d="M790 6184 c-79 -211 -92 -519 -29 -718 l18 -61 -29 -35 c-16 -19 -54
-72 -85 -117 -173 -257 -235 -519 -206 -877 53 -647 333 -1043 877 -1239 126
-45 459 -117 543 -117 21 0 11 -25 -30 -80 -56 -73 -105 -179 -132 -281 l-22
-84 -80 -27 c-101 -34 -187 -48 -290 -48 -234 1 -393 95 -557 331 -91 130
-187 218 -303 275 -88 44 -95 46 -189 47 -91 2 -99 0 -116 -21 -29 -35 -10
-63 94 -141 171 -129 245 -222 349 -441 33 -69 73 -144 88 -167 87 -127 254
-240 424 -288 87 -24 342 -31 470 -12 55 8 103 13 108 10 12 -7 7 -554 -6
-593 -7 -19 -27 -45 -47 -58 l-35 -25 760 7 c418 3 808 9 867 13 l107 6 -26
20 c-53 42 -54 47 -52 580 1 337 -2 514 -10 561 -23 135 -73 252 -148 349 -25
32 -44 60 -42 61 2 2 51 11 109 20 446 70 734 192 946 403 104 104 163 182
214 283 116 234 172 490 173 800 1 334 -68 557 -247 793 l-68 90 23 101 c19
81 23 130 23 246 0 169 -12 258 -55 393 l-31 97 -38 0 c-63 0 -210 -29 -302
-60 -102 -34 -292 -128 -430 -212 l-98 -59 -112 25 c-449 100 -923 100 -1376
0 l-112 -25 -98 59 c-270 165 -492 250 -693 268 l-77 7 -22 -59z"/>
<path d="M6660 4539 c-35 -14 -110 -52 -110 -56 0 -7 239 -593 396 -971 l13
-32 68 25 c37 14 72 30 77 35 6 6 3 24 -8 46 l-17 37 44 46 c75 78 116 139
137 207 79 259 -75 524 -337 579 -38 8 -96 15 -130 15 l-63 0 -20 40 c-11 22
-21 40 -23 39 -1 0 -13 -5 -27 -10z"/>
<path d="M6465 4250 c-38 -16 -250 -104 -470 -195 -220 -92 -401 -168 -403
-170 -4 -4 139 -359 214 -530 34 -79 56 -119 65 -117 14 3 879 359 931 382 31
15 37 -3 -77 270 -116 280 -166 390 -179 390 -6 0 -42 -14 -81 -30z"/>
<path d="M5440 3825 c-30 -12 -56 -27 -57 -32 -2 -5 55 -150 127 -323 71 -173
130 -316 130 -317 0 -2 8 -3 18 -3 24 0 144 58 139 67 -3 5 -37 87 -77 183
-134 328 -191 450 -209 449 -9 0 -41 -11 -71 -24z"/>
<path d="M5140 3639 c-410 -169 -725 -302 -734 -310 -10 -9 31 -119 145 -393
32 -77 63 -144 68 -149 8 -8 41 1 106 28 l95 38 38 -27 c39 -27 40 -27 81 -10
22 9 47 14 55 11 24 -9 34 -78 19 -122 -11 -29 -13 -64 -9 -126 l6 -85 -211
-430 c-116 -236 -255 -521 -309 -634 -159 -334 -155 -323 -106 -356 55 -35 64
-20 466 811 133 275 247 506 254 513 22 23 64 -1 70 -40 3 -18 7 -279 8 -580
2 -413 6 -550 15 -559 13 -13 69 -17 80 -5 17 16 22 173 22 662 l1 521 25 11
c22 10 27 9 41 -12 8 -14 147 -296 308 -628 161 -332 305 -623 321 -648 43
-69 61 -75 101 -35 19 19 23 31 18 48 -12 41 -149 328 -409 861 l-258 528 6
57 c11 104 -25 185 -105 231 -104 61 -125 120 -56 152 26 13 39 26 43 45 14
62 22 69 124 113 62 27 101 49 101 58 0 16 -135 347 -189 464 l-36 77 -195
-80z"/>
<path d="M4248 3268 l-68 -33 109 -263 c60 -145 113 -268 118 -273 10 -10 138
35 149 52 8 13 -217 549 -230 549 -6 0 -42 -15 -78 -32z"/>
<path d="M4030 3066 c-207 -84 -300 -128 -300 -142 0 -25 132 -344 142 -344
14 0 421 169 431 179 8 8 -25 98 -95 259 -28 62 -46 92 -57 92 -9 -1 -63 -20
-121 -44z"/>
<path d="M3563 2930 c-25 -11 -43 -26 -43 -35 0 -16 138 -362 166 -416 l14
-29 52 20 c28 11 56 24 62 30 10 10 -54 181 -137 363 -44 95 -46 97 -114 67z"/>
</g>
</svg>
