<?xml version="1.0" standalone="no"?>
<!DOCTYPE svg PUBLIC "-//W3C//DTD SVG 20010904//EN"
 "http://www.w3.org/TR/2001/REC-SVG-20010904/DTD/svg10.dtd">
<svg version="1.0" xmlns="http://www.w3.org/2000/svg"
 width="760.000000pt" height="760.000000pt" viewBox="0 0 760.000000 760.000000"
 preserveAspectRatio="xMidYMid meet">

<g transform="translate(0.000000,760.000000) scale(0.100000,-0.100000)"
fill="#000000" stroke="none">
<path d="M899 6303 c-31 -5 -44 -34 -86 -189 -24 -89 -27 -116 -27 -279 -1
-170 1 -186 28 -277 l28 -97 -49 -55 c-99 -112 -201 -313 -243 -481 -28 -113
-37 -258 -28 -450 9 -191 28 -307 79 -470 131 -419 402 -684 850 -830 120 -39
242 -65 477 -101 39 -6 40 -13 7 -44 -69 -64 -143 -220 -160 -335 -7 -44 -11
-49 -51 -66 -148 -66 -374 -84 -510 -42 -142 45 -262 145 -370 308 -93 140
-219 252 -335 296 -127 49 -278 45 -301 -7 -16 -34 9 -65 103 -132 41 -29 93
-68 116 -87 66 -55 160 -190 220 -315 75 -160 91 -188 135 -245 89 -116 247
-216 403 -256 115 -29 291 -35 442 -15 67 9 124 16 127 16 3 0 6 -130 6 -289
0 -283 0 -289 -23 -322 -14 -21 -39 -40 -67 -51 -43 -17 -12 -17 760 -12 814
5 1058 11 1009 24 -41 12 -76 39 -88 68 -7 18 -12 210 -14 562 -3 511 -4 539
-25 617 -26 101 -69 189 -129 266 -25 32 -44 59 -42 61 2 1 47 8 99 15 242 31
476 98 653 188 442 225 659 617 692 1248 18 333 -71 625 -264 868 l-59 74 18
66 c58 208 48 462 -28 691 l-25 78 -106 -4 c-90 -4 -124 -11 -227 -46 -136
-45 -315 -132 -449 -217 l-90 -58 -105 22 c-325 68 -509 86 -785 78 -232 -8
-296 -15 -538 -63 l-178 -36 -107 65 c-181 110 -353 190 -496 231 -42 12 -220
40 -221 35 0 -1 -12 -4 -26 -6z"/>
<path d="M6682 4588 c-63 -27 -73 -34 -69 -52 4 -20 406 -996 413 -1005 3 -4
154 56 163 64 2 2 -5 24 -14 49 l-17 45 54 50 c61 56 110 139 133 226 67 257
-111 522 -378 565 -38 6 -89 8 -115 4 l-47 -6 -16 43 c-8 24 -20 44 -25 45 -5
1 -42 -12 -82 -28z"/>
<path d="M6136 4150 c-263 -109 -480 -201 -483 -203 -3 -4 262 -655 270 -664
4 -3 970 396 979 405 4 4 -21 75 -56 157 -34 83 -95 230 -135 328 -40 97 -79
177 -85 177 -6 0 -226 -90 -490 -200z"/>
<path d="M5523 3896 c-39 -17 -75 -34 -78 -38 -4 -4 55 -155 130 -337 130
-312 138 -329 158 -321 107 42 142 61 139 72 -5 22 -264 643 -271 649 -3 3
-38 -8 -78 -25z"/>
<path d="M4935 3594 c-258 -107 -473 -198 -476 -202 -4 -4 44 -128 107 -277
62 -148 115 -274 117 -280 2 -6 48 8 105 31 l101 42 38 -28 39 -29 43 20 c24
10 47 17 51 14 5 -3 14 -21 20 -40 10 -29 9 -44 -4 -82 -18 -53 -20 -103 -6
-154 10 -35 -2 -61 -326 -724 -243 -500 -334 -695 -330 -711 13 -49 70 -71
109 -42 9 7 158 306 332 663 174 358 320 654 324 658 5 4 20 5 35 1 l26 -6 0
-574 c0 -561 0 -574 20 -594 26 -26 74 -26 100 0 20 20 20 33 20 599 0 578 0
580 21 586 11 4 22 5 23 3 2 -1 148 -301 325 -664 178 -364 328 -667 334 -673
6 -6 26 -11 43 -11 39 0 78 42 70 75 -3 11 -156 330 -341 708 -335 687 -336
688 -325 728 26 94 -30 208 -125 259 -46 25 -85 69 -85 97 0 7 20 21 44 32 39
17 46 24 51 58 4 21 8 43 10 48 2 6 53 30 114 54 l110 44 -13 31 c-123 302
-222 536 -226 535 -3 0 -216 -88 -475 -195z"/>
<path d="M4320 3340 c-36 -16 -69 -31 -73 -32 -7 -3 216 -554 229 -567 5 -5
164 61 164 68 0 3 -39 98 -86 211 -47 113 -99 238 -116 278 -16 39 -35 72 -41
71 -7 0 -41 -13 -77 -29z"/>
<path d="M4013 3097 c-122 -51 -224 -95 -228 -98 -6 -7 130 -347 145 -363 7
-6 442 164 459 180 4 3 -138 353 -148 366 -3 4 -106 -34 -228 -85z"/>
<path d="M3631 2994 c-30 -13 -56 -26 -58 -28 -3 -3 182 -455 189 -462 9 -8
138 50 138 63 0 11 -35 98 -152 381 -34 82 -37 83 -117 46z"/>
</g>
</svg>
